{
  "accessors": [
    {
      "bufferView": 2,
      "componentType": 5126,
      "count": 21977,
      "max": [
        6.543766975402832,
        2.552294969558716,
        1.7650330066680908
      ],
      "min": [
        -5.845921039581299,
        -2.6695148944854736,
        -3.8926920890808105
      ],
      "type": "VEC3"
    },
    {
      "bufferView": 2,
      "byteOffset": 263724,
      "componentType": 5126,
      "count": 21977,
      "max": [
        0.9999668598175049,
        0.9999939203262329,
        0.9998340010643005
      ],
      "min": [
        -0.9999439716339111,
        -0.9998047947883606,
        -0.9998659491539001
      ],
      "type": "VEC3"
    },
    {
      "bufferView": 1,
      "componentType": 5126,
      "count": 21977,
      "max": [
        0.98888099193573,
        0.9899500012397766
      ],
      "min": [
        0.01881599985063076,
        0.0017160000279545784
      ],
      "type": "VEC2"
    },
    {
      "bufferView": 0,
      "componentType": 5125,
      "count": 113928,
      "type": "SCALAR"
    }
  ],
  "asset": {
    "extras": {
      "author": "n- (https://sketchfab.com/n-)",
      "license": "CC-BY-4.0 (http://creativecommons.org/licenses/by/4.0/)",
      "source": "https://sketchfab.com/3d-models/jellyfish-001-d89af687535340609df38ef3325b285a",
      "title": "Jellyfish_001"
    },
    "generator": "Sketchfab-12.66.0",
    "version": "2.0"
  },
  "bufferViews": [
    {
      "buffer": 0,
      "byteLength": 455712,
      "name": "floatBufferViews",
      "target": 34963
    },
    {
      "buffer": 0,
      "byteLength": 175816,
      "byteOffset": 455712,
      "byteStride": 8,
      "name": "floatBufferViews",
      "target": 34962
    },
    {
      "buffer": 0,
      "byteLength": 527448,
      "byteOffset": 631528,
      "byteStride": 12,
      "name": "floatBufferViews",
      "target": 34962
    }
  ],
  "buffers": [
    {
      "byteLength": 1158976,
      "uri": "jellyfish.bin"
    }
  ],
  "extensionsUsed": [
    "KHR_materials_unlit"
  ],
  "images": [
    {
      "uri": "textures/Jellyfish_001_mat_baseColor.png"
    }
  ],
  "materials": [
    {
      "alphaMode": "BLEND",
      "doubleSided": true,
      "extensions": {
        "KHR_materials_unlit": {}
      },
      "name": "Jellyfish_001_mat",
      "pbrMetallicRoughness": {
        "baseColorTexture": {
          "index": 0
        },
        "metallicFactor": 0.0
      }
    }
  ],
  "meshes": [
    {
      "name": "Object_0",
      "primitives": [
        {
          "attributes": {
            "NORMAL": 1,
            "POSITION": 0,
            "TEXCOORD_0": 2
          },
          "indices": 3,
          "material": 0,
          "mode": 4
        }
      ]
    }
  ],
  "nodes": [
    {
      "children": [
        1
      ],
      "matrix": [
        1.0,
        0.0,
        0.0,
        0.0,
        0.0,
        -1.0,
        -4.440892098500626e-16,
        0.0,
        0.0,
        4.440892098500626e-16,
        -1.0,
        0.0,
        0.0,
        -1.1224354505538938,
        -1.0052304267883303,
        1.0
      ],
      "name": "Sketchfab_model"
    },
    {
      "children": [
        2
      ],
      "name": "Jellyfish_001.obj.cleaner.materialmerger.gles"
    },
    {
      "mesh": 0,
      "name": "Object_2"
    }
  ],
  "samplers": [
    {
      "magFilter": 9729,
      "minFilter": 9987,
      "wrapS": 10497,
      "wrapT": 10497
    }
  ],
  "scene": 0,
  "scenes": [
    {
      "name": "Sketchfab_Scene",
      "nodes": [
        0
      ]
    }
  ],
  "textures": [
    {
      "sampler": 0,
      "source": 0
    }
  ]
}
