{
  "accessors": [
    {
      "bufferView": 2,
      "componentType": 5126,
      "count": 439,
      "max": [
        2.63700795173645,
        1.223433017730713,
        2.4065589904785156
      ],
      "min": [
        0.637008011341095,
        -0.7765679955482483,
        0.4065589904785156
      ],
      "type": "VEC3"
    },
    {
      "bufferView": 2,
      "byteOffset": 5268,
      "componentType": 5126,
      "count": 439,
      "max": [
        1.0,
        1.0,
        1.0
      ],
      "min": [
        -1.0,
        -1.0,
        -1.0
      ],
      "type": "VEC3"
    },
    {
      "bufferView": 1,
      "componentType": 5126,
      "count": 439,
      "max": [
        1.0,
        1.0
      ],
      "min": [
        0.0,
        0.0
      ],
      "type": "VEC2"
    },
    {
      "bufferView": 0,
      "componentType": 5125,
      "count": 2280,
      "type": "SCALAR"
    },
    {
      "bufferView": 2,
      "byteOffset": 10536,
      "componentType": 5126,
      "count": 821,
      "max": [
        3.140014886856079,
        3.9810678958892822,
        3.7226269245147705
      ],
      "min": [
        -3.5768589973449707,
        -3.830626964569092,
        -1.4203310012817383
      ],
      "type": "VEC3"
    },
    {
      "bufferView": 2,
      "byteOffset": 20388,
      "componentType": 5126,
      "count": 821,
      "max": [
        0.8849942088127136,
        0.9949667453765869,
        0.9997576475143433
      ],
      "min": [
        -0.9999534487724304,
        -0.9980497360229492,
        -0.47361332178115845
      ],
      "type": "VEC3"
    },
    {
      "bufferView": 1,
      "byteOffset": 3512,
      "componentType": 5126,
      "count": 821,
      "max": [
        0.8660339713096619,
        0.8837130069732666
      ],
      "min": [
        0.1089320033788681,
        0.11515100300312042
      ],
      "type": "VEC2"
    },
    {
      "bufferView": 0,
      "byteOffset": 9120,
      "componentType": 5125,
      "count": 4680,
      "type": "SCALAR"
    },
    {
      "bufferView": 2,
      "byteOffset": 30240,
      "componentType": 5126,
      "count": 1152,
      "max": [
        3.9032540321350098,
        4.030409812927246,
        1.250859022140503
      ],
      "min": [
        -3.1003220081329346,
        -3.516608953475952,
        -2.515023946762085
      ],
      "type": "VEC3"
    },
    {
      "bufferView": 2,
      "byteOffset": 44064,
      "componentType": 5126,
      "count": 1152,
      "max": [
        0.9962028861045837,
        0.9936846494674683,
        0.8541751503944397
      ],
      "min": [
        -0.9686427712440491,
        -0.9953592419624329,
        -0.9987804889678955
      ],
      "type": "VEC3"
    },
    {
      "bufferView": 1,
      "byteOffset": 10080,
      "componentType": 5126,
      "count": 1152,
      "max": [
        0.8911380171775818,
        0.8350920081138611
      ],
      "min": [
        0.09332100301980972,
        0.06474299728870392
      ],
      "type": "VEC2"
    },
    {
      "bufferView": 0,
      "byteOffset": 27840,
      "componentType": 5125,
      "count": 6612,
      "type": "SCALAR"
    },
    {
      "bufferView": 2,
      "byteOffset": 57888,
      "componentType": 5126,
      "count": 866,
      "max": [
        3.8106789588928223,
        3.9810678958892822,
        3.376708984375
      ],
      "min": [
        -3.5310680866241455,
        -3.830626964569092,
        -1.8452279567718506
      ],
      "type": "VEC3"
    },
    {
      "bufferView": 2,
      "byteOffset": 68280,
      "componentType": 5126,
      "count": 866,
      "max": [
        0.9883099794387817,
        0.9949667453765869,
        0.9977074861526489
      ],
      "min": [
        -0.993283212184906,
        -0.9832446575164795,
        -0.9996124505996704
      ],
      "type": "VEC3"
    },
    {
      "bufferView": 1,
      "byteOffset": 19296,
      "componentType": 5126,
      "count": 866,
      "max": [
        0.9585229754447937,
        0.9554529786109924
      ],
      "min": [
        0.023973999544978142,
        0.0
      ],
      "type": "VEC2"
    },
    {
      "bufferView": 0,
      "byteOffset": 54288,
      "componentType": 5125,
      "count": 4116,
      "type": "SCALAR"
    },
    {
      "bufferView": 2,
      "byteOffset": 78672,
      "componentType": 5126,
      "count": 951,
      "max": [
        3.6521730422973633,
        3.273880958557129,
        2.7025749683380127
      ],
      "min": [
        -3.510658025741577,
        -3.089400053024292,
        -1.8452279567718506
      ],
      "type": "VEC3"
    },
    {
      "bufferView": 2,
      "byteOffset": 90084,
      "componentType": 5126,
      "count": 951,
      "max": [
        0.9984156489372253,
        0.8179508447647095,
        0.9986986517906189
      ],
      "min": [
        -0.9996486306190491,
        -0.8952502608299255,
        -0.9996124505996704
      ],
      "type": "VEC3"
    },
    {
      "bufferView": 1,
      "byteOffset": 26224,
      "componentType": 5126,
      "count": 951,
      "max": [
        0.8840219974517822,
        0.9922720193862915
      ],
      "min": [
        0.10050500184297562,
        0.002887000096961856
      ],
      "type": "VEC2"
    },
    {
      "bufferView": 0,
      "byteOffset": 70752,
      "componentType": 5125,
      "count": 5184,
      "type": "SCALAR"
    }
  ],
  "asset": {
    "extras": {
      "author": "jrshah (https://sketchfab.com/jrshah)",
      "license": "CC-BY-4.0 (http://creativecommons.org/licenses/by/4.0/)",
      "source": "https://sketchfab.com/3d-models/giant-clam-5bf702b5d0a848c8853a28e5d37aa798",
      "title": "Giant Clam"
    },
    "generator": "Sketchfab-12.66.0",
    "version": "2.0"
  },
  "bufferViews": [
    {
      "buffer": 0,
      "byteLength": 91488,
      "name": "floatBufferViews",
      "target": 34963
    },
    {
      "buffer": 0,
      "byteLength": 33832,
      "byteOffset": 91488,
      "byteStride": 8,
      "name": "floatBufferViews",
      "target": 34962
    },
    {
      "buffer": 0,
      "byteLength": 101496,
      "byteOffset": 125320,
      "byteStride": 12,
      "name": "floatBufferViews",
      "target": 34962
    }
  ],
  "buffers": [
    {
      "byteLength": 226816,
      "uri": "clam.bin"
    }
  ],
  "images": [
    {
      "uri": "textures/lambert2SG_baseColor.jpeg"
    },
    {
      "uri": "textures/lambert3SG_baseColor.jpeg"
    },
    {
      "uri": "textures/lambert4SG_baseColor.jpeg"
    }
  ],
  "materials": [
    {
      "doubleSided": true,
      "name": "lambert2SG",
      "pbrMetallicRoughness": {
        "baseColorTexture": {
          "index": 0
        },
        "metallicFactor": 0.0
      }
    },
    {
      "doubleSided": true,
      "name": "lambert3SG",
      "pbrMetallicRoughness": {
        "baseColorTexture": {
          "index": 1
        },
        "metallicFactor": 0.0
      }
    },
    {
      "doubleSided": true,
      "name": "lambert4SG",
      "pbrMetallicRoughness": {
        "baseColorTexture": {
          "index": 2
        },
        "metallicFactor": 0.0
      }
    },
    {
      "doubleSided": true,
      "name": "lambert6SG",
      "pbrMetallicRoughness": {
        "baseColorFactor": [
          0.02,
          0.16,
          0.14,
          1.0
        ],
        "metallicFactor": 0.0
      }
    }
  ],
  "meshes": [
    {
      "name": "Object_0",
      "primitives": [
        {
          "attributes": {
            "NORMAL": 1,
            "POSITION": 0,
            "TEXCOORD_0": 2
          },
          "indices": 3,
          "material": 0,
          "mode": 4
        }
      ]
    },
    {
      "name": "Object_1",
      "primitives": [
        {
          "attributes": {
            "NORMAL": 5,
            "POSITION": 4,
            "TEXCOORD_0": 6
          },
          "indices": 7,
          "material": 1,
          "mode": 4
        }
      ]
    },
    {
      "name": "Object_2",
      "primitives": [
        {
          "attributes": {
            "NORMAL": 9,
            "POSITION": 8,
            "TEXCOORD_0": 10
          },
          "indices": 11,
          "material": 1,
          "mode": 4
        }
      ]
    },
    {
      "name": "Object_3",
      "primitives": [
        {
          "attributes": {
            "NORMAL": 13,
            "POSITION": 12,
            "TEXCOORD_0": 14
          },
          "indices": 15,
          "material": 2,
          "mode": 4
        }
      ]
    },
    {
      "name": "Object_4",
      "primitives": [
        {
          "attributes": {
            "NORMAL": 17,
            "POSITION": 16,
            "TEXCOORD_0": 18
          },
          "indices": 19,
          "material": 3,
          "mode": 4
        }
      ]
    }
  ],
  "nodes": [
    {
      "children": [
        1
      ],
      "matrix": [
        0.27980780601501465,
        0.0,
        0.0,
        0.0,
        0.0,
        6.212981374154373e-17,
        -0.27980780601501465,
        0.0,
        0.0,
        0.27980780601501465,
        6.212981374154373e-17,
        0.0,
        0.0,
        0.0,
        0.0,
        1.0
      ],
      "name": "Sketchfab_model"
    },
    {
      "children": [
        2,
        3,
        4,
        5,
        6
      ],
      "name": "clam.obj.cleaner.materialmerger.gles"
    },
    {
      "mesh": 0,
      "name": "Object_2"
    },
    {
      "mesh": 1,
      "name": "Object_3"
    },
    {
      "mesh": 2,
      "name": "Object_4"
    },
    {
      "mesh": 3,
      "name": "Object_5"
    },
    {
      "mesh": 4,
      "name": "Object_6"
    }
  ],
  "samplers": [
    {
      "magFilter": 9729,
      "minFilter": 9987,
      "wrapS": 10497,
      "wrapT": 10497
    }
  ],
  "scene": 0,
  "scenes": [
    {
      "name": "Sketchfab_Scene",
      "nodes": [
        0
      ]
    }
  ],
  "textures": [
    {
      "sampler": 0,
      "source": 0
    },
    {
      "sampler": 0,
      "source": 1
    },
    {
      "sampler": 0,
      "source": 2
    }
  ]
}
